<?xml version="1.0" encoding="UTF-8"?>
<svg id="Layer_1" data-name="Layer 1" xmlns="http://www.w3.org/2000/svg" version="1.1" viewBox="0 0 1238.68 970.8">
  <defs>
    <style>
      .cls-1 {
        stroke-width: 3px;
      }

      .cls-1, .cls-2 {
        fill: none;
        stroke: #006837;
        stroke-miterlimit: 10;
      }

      .cls-3 {
        fill: #006837;
        stroke-width: 0px;
      }
    </style>
  </defs>
  <path class="cls-2" d="M844.16,126.1c14.68,17.41,41.76,54.39,52,108.48,12.39,65.4-7.22,116.75-16.25,139.48-25.62,64.51-68.63,101.22-101.57,128.65-21.8,18.16-90.4,71.63-196.36,93.44-34.03,7-120.18,23.63-220.74-9.48-41.63-13.71-95.73-31.52-140.84-83.96-73.32-85.24-61.12-190.19-59.59-201.78,3.04-22.91,9.28-42.24,13.14-52.92,18.34-50.72,47.5-82.46,64.05-100.11,76.19-81.27,183.73-112.72,201.78-117.82,48.65-13.74,148.3-40.37,261.36,1.35,70.78,26.12,117.87,68.34,143,94.65Z"/>
  <path class="cls-2" d="M1092.24,399.81c7.62-10.51-35.89-129.43-76.8-160.41-7.17-5.43-28.26-31.5-63.51-57.57-24.04-17.77-60.96-40.98-110.85-58.91"/>
  <path class="cls-2" d="M835.55,900.3c83.04-43.61,154.88-106.09,207.97-190.45,43.73-68.73,53.1-146.84,60.94-225.99"/>
  <path class="cls-2" d="M308.98,940.89c95.72,35.35,198.77,32.25,298.69,26.04,71.82-3.1,143.65-24.81,209.48-56.59"/>
  <path class="cls-2" d="M24.27,559.34c1.98,39.75,10.88,76.13,20.18,106.79,9.89,32.58,21.69,71.49,50.45,113.95,32.42,47.87,153.67,147.18,185.28,147.18"/>
  <path class="cls-2" d="M173.97,248.02c-9.96,8.95-53.76,49.96-82.57,93.77"/>
  <path class="cls-2" d="M216,497.43c7.78,12.58,20.42,46.88,36.35,66.91,23.72,29.8,45.26,50.16,64.33,68.06,24.54,23.03,36.87,34.48,49.41,42.88,51.2,34.32,106.49,36.28,161.29,38.22,32.82,1.16,65.33,2.32,96.03-8.39,36.6-12.77,54.9-19.15,57.8-21.44,2.47-1.95,9.7-8,17.79-6.57,5.75,1.01,9.29,5.34,12.76,9.28,7.59,8.62,17.16,15.35,24.75,23.97,19.87,22.58,28.78,19.76,54.91,46.01,21.68,21.78,29.33,37.57,35.19,35.19,6.54-2.66,2.97-24.72,2.71-26.29-2.52-14.98-9.27-26.25-19.72-40.21-9.42-12.59-23.26-29.28-42.53-47.17-33.93-31.51-54.49-43.07-54.91-43.31-.73-.42-3.22-1.81-4.4-4.6-.29-.68-1.49-3.81.72-9.13,3.25-7.8,10.41-12.09,12.46-13.33,0,0,13.16-7.96,31.02-21.78,6.36-4.92,3.56-3.82,23.54-23.54,18.66-18.42,24.24-22.48,30.8-21.78,4.81.51,8.37,3.4,13.86,9.24,15.87,16.88,24.37,33.45,27.28,38.94,3.89,7.33,13.22,20.28,31.9,46.2,15.49,21.49,23.35,30.84,34.1,50.16,7.24,13.01,9.8,19.78,11.44,26.84,1.59,6.83,4.87,21.81-.66,39.82-1.5,4.9-7.37,22.1-24.42,35.42-11.97,9.34-23.66,12.26-26.84,12.98-5.24,1.19-18.58,4.05-33.66-1.32-4.38-1.56-7.8-3.42-10.12-4.84"/>
  <path class="cls-2" d="M906.36,331.32c-.16,12.85-.85,29.72-2.98,49.4-1.39,12.81-3.57,32.31-9.28,56.36-7.19,30.25-15.5,63.83-40.12,97.47-8.32,11.37-16.41,19.9-22.21,25.53"/>
  <path class="cls-2" d="M725.05,41.24c11.96,3.22,28.38,8.68,46.52,18.3,26.31,13.94,43.05,29.61,54.83,40.79,11.43,10.85,33.22,31.86,52.49,65.87,8.86,15.63,24.52,43.89,30.43,84.59,1.34,9.26,5.12,39.42-2.34,77.57-7.48,38.26-22.38,64.63-33.1,83.25-4.44,7.72-24.16,41.22-61.85,77.57-42.89,41.35-84.29,62.51-106.99,73.89-21.49,10.77-77.49,36.8-155.14,47.14-30.54,4.07-81.23,10.38-145.11-2.34-15.54-3.1-51.84-11.3-94.29-31.43-23.46-11.12-46.81-22.42-71.89-45.14-22.39-20.29-35.26-39.81-44.8-54.5-12.91-19.88-29.39-45.25-38.12-82.92-2.22-9.6-9.05-42.08-3.01-83.92,6.5-44.96,24.61-78.23,37.06-97.17"/>
  <path class="cls-2" d="M894.09,371.55c-2.48,10.83-6.83,25.67-14.87,42.13-2.73,5.58-9.04,17.81-24.41,38.07-8.77,11.56-25.35,33.19-52.23,57.11-28.55,25.41-53.63,39.98-73.71,51.5-19.97,11.45-46.67,26.57-84.69,38.81-33.09,10.65-59,14.03-84.2,17.33-20.29,2.65-49.91,6.39-89.09,4.88-17.56-.68-45.31-1.89-80.79-10.25-31.07-7.32-53.41-16.68-67.61-22.7-25.84-10.96-43.02-18.39-62.24-33.93-15.74-12.73-26.5-25.75-33.19-34.9"/>
  <path class="cls-2" d="M647.68,657.71c-15.47,4.95-35.6,10.39-59.52,14.28-25.3,4.12-44.75,4.88-56.35,5.29-16.86.6-38.46,1.28-66.4-2.12-6.79-.82-37.65-4.77-76.45-17.72-13.51-4.51-35.26-11.89-61.64-26.45-14.94-8.25-26.99-16.38-35.86-22.86"/>
  <path class="cls-2" d="M150.66,330.05c-2.3-1.7-7.05-4.73-13.78-5.71-2.23-.33-13.48-1.97-21.03,4.63-5.86,5.12-5.09,11.34-11.05,13.37-2.09.71-2.92.19-7.84-.18-7.42-.56-13.82-1.04-19.97,1.25-1.15.43-11.92,4.44-13.01,11.77-.48,3.26,1.11,6.08-.89,8.56-.54.67-1.49,1.49-4.46,2.32-4.89,1.36-8.02.72-10.52.89-6.91.48-14.95,7.64-15.87,14.62-.77,5.89,3.49,11.92,1.07,16.4-.66,1.22-1.6,2.14-1.6,2.14-2.2,2.14-4.95,2.49-5.88,2.67-5.84,1.18-11.06,10.69-12.3,18.36-.48,2.96-1.53,9.48,1.78,12.12,1.42,1.14,3.35,1.32,4.46,3.39.09.16,1.19,2.3.36,4.1-1.02,2.2-4.04,2.02-6.6,3.03-6.74,2.66-8.6,12.89-9.63,18.54-.85,4.66-2.2,12.11,1.43,14.97,1.27,1,3.11,1.42,3.92,3.39.36.86.58,2.18-.18,4.46-1.37,4.14-4.12,5.86-5.88,8.02-3.99,4.92-4.09,13.66-1.07,18.9,2.33,4.04,8.21,8.92,13.73,10.7,1.08.35,3.67,1.07,4.63,3.21.59,1.32.32,2.62,0,4.1-1,4.54-1.5,6.81-2.14,8.91-1.93,6.34.83,12.76,1.25,13.73,2.51,5.83,8.97,12.95,15.33,12.83,1.45-.03,4.18-.46,6.06,1.25.24.22.99.95,1.6,2.85,1.08,3.38.19,5.66.18,8.2-.01,3.27,1.45,5.62,3.39,8.73,4.39,7.06,13.69,13.28,22.48,12.23,5.84-.7,9.63-4.39,11.33-2.71,1.19,1.18-.3,3.34.34,7.95,0,0,.47,3.41,2.2,6.59,2.65,4.89,7.41,6.99,11.5,8.79,4.66,2.06,11.54,5.09,19.11,3.55,1.72-.35,4.81-1.21,8.79-.51,1.82.32,4.15.76,5.24,2.54,1.31,2.13-.61,3.86.34,6.09,1.27,2.98,6.29,3.57,10.82,4.06,4.12.44,5.76.11,10.99,0,13.55-.28,18.83,1.63,22.15-2.03,1.29-1.42,1.69-3.01,3.21-3.21.71-.09,2.1.06,5.92,4.57,3.64,4.3,2.89,4.77,4.57,6.09,4.09,3.22,10.57,2,14.03,1.35,4.36-.82,4.88-1.93,7.95-1.69,4.58.35,5.12,2.95,8.12,2.54,3.36-.46,3.54-3.85,9.98-7.95,3.2-2.03,4.35-1.96,4.9-1.86,2.54.45,2.82,3.24,5.92,6.26,3.4,3.32,7.48,4.27,9.47,4.73,2.27.53,6.45,1.51,10.82-.17,4.06-1.56,6.3-4.64,10.31-10.14,3.02-4.15,3.2-5.52,6.26-8.79,3.04-3.25,4.55-4.87,6.93-5.41,5.01-1.14,7.76,3.62,12.68,2.71,3.08-.57,5.24-3.04,6.59-5.07"/>
  <path class="cls-2" d="M163.11,418.84c-1.9.1-7.62.63-12.6,5.03-5.36,4.75-6.34,10.88-6.71,13.42-1.11,7.71,1.27,17.86,8.24,22.62,6.64,4.54,10.92-.27,20.32,4.79,5.57,3,4.35,4.84,12.27,9.97,7.7,4.99,10.42,4.26,13.25,8.36,3.8,5.48,2.74,12.3,2.47,14.08-.21,1.38-1.03,6.25-4.6,10.55-6.71,8.07-19.3,9.48-28.57,5.94-5.91-2.26-14.48-8.07-14.19-14.76.15-3.5,3.56-6.6,10.35-12.65,8.14-7.25,11.33-8.03,15.34-13.23,3.59-4.66,4.82-8.09,5.58-11.14"/>
  <path class="cls-2" d="M84.13,431.55c1.91-1.18,10.08-5.9,20.49-3.84,3.56.7,11.89,2.35,14.94,8.96,2.42,5.24.21,10.75-1.99,16.22-.73,1.81-3.83,9.15-12.09,16.93-6.99,6.58-9.16,5.44-17.07,13.09-7.29,7.04-8.7,11.13-9.25,13.52-.36,1.58-1.36,6.18.71,11.38.32.81,2.53,6.14,8.11,9.25,3.68,2.05,6.5,1.84,18.21,1.14,17.76-1.07,19.75-1.1,21.49-3.27,3.41-4.27,1.35-11.18-.28-16.65-3.1-10.37-9.35-17.06-11.81-19.49-10.42-10.31-24.83-15.53-29.88-17.36-8.14-2.95-13-3.56-14.51-7.68-1.86-5.06,2.71-11.6,4.55-14.23,3.23-4.62,7.01-7.12,8.39-7.97Z"/>
  <path class="cls-2" d="M904.16,372.97c5.94,3.09,15.18,7.88,26.58,13.65,18.24,9.24,21.62,10.69,34.71,17.36,17.47,8.9,30.58,16.06,41.94,22.27,16.65,9.1,24.97,13.65,36.16,20.25,12.15,7.17,29.91,18.06,50.33,32.11,14.51,9.98,21.77,14.98,28.35,20.25,8.48,6.79,13.15,11.27,22.85,17.07,12.95,7.74,19.91,8.9,23.72,9.26,4.35.4,11.05,1.02,17.93-2.31,8.78-4.26,7.66-10.03,16.2-13.88,7.81-3.53,10.97.29,17.93-3.76,7.22-4.2,9.9-11.84,10.41-13.31,3.46-9.85.31-20.86-.87-24.01-.28-.75-1.07-2.71-1.45-5.5-.31-2.35-.13-3.78,0-6.65.15-3.47.28-6.3,0-8.97-.53-5.06-2.46-8.77-3.18-10.12-4.15-7.8-11.23-11.42-15.04-13.31-6.46-3.19-11.91-3.91-17.07-4.63-11.12-1.55-22.12-3.89-33.26-5.21-8.01-.95-19.81-3.33-43.39-8.1-22.97-4.64-37.46-7.57-56.12-12.44-18.02-4.7-31.2-9.01-57.56-17.64-19.27-6.31-35.95-11.79-57.85-20.25-16.32-6.3-29.76-12.01-39.28-16.2"/>
  <path class="cls-2" d="M907.18,346.2c4.19,3.15,10.67,7.57,19.21,11.64,7.26,3.46,10.43,4.01,21.83,7.86,4.81,1.62,15.91,5.93,38.12,14.55,21.16,8.21,18.1,7.15,22.41,8.73,17.9,6.56,32.35,10.78,40.74,13.1,12.15,3.35,21.55,5.46,27.06,6.69,9.99,2.23,18.84,3.94,26.19,5.24"/>
  <path class="cls-2" d="M905.3,358.51c3.26,1.46,8.2,3.66,14.22,6.32,18.26,8.06,24.63,10.66,34.56,15.03,16.68,7.35,29.09,13.4,39.82,18.63,11.19,5.46,21.69,10.57,35.71,18.11,12.78,6.87,22.24,12.4,29.16,16.44,17.99,10.52,31.62,19.21,37.9,23.25,14.01,9.02,22.78,14.68,34.3,23.25,11.87,8.84,21.27,16.77,27.75,22.48"/>
  <path class="cls-2" d="M358.81,670.05c-4.31.16-11.36.23-20.04-.57-15.26-1.41-24.05-4.47-27.88,0-2.22,2.59-1.64,6.37-1.35,8.54,1.89,14.28-1.85,28.77-2.25,43.17-.56,20.37-.84,30.56-3.15,41.37-2.18,10.23-4.1,13.8-5.4,24.73-1.25,10.58-.36,14.95-.45,26.98-.11,15.15-1.65,26.36-3.15,37.32-2.38,17.39-3.83,27.92-8.99,41.37-2.88,7.49-3.73,7.6-4.95,12.59-.85,3.47-1.91,9.46,1.8,35.07,1.44,9.93,2.27,13.68,4.05,13.94,2.12.31,3.1-4.76,8.09-9.89,5.04-5.19,10.79-6.95,18.89-9.44,9.9-3.05,18-3.49,20.69-3.6,18.84-.79,27.98,3.81,44.97,6.3,22.51,3.29,40.85.23,49.91-1.35,22.42-3.91,21.31-8.74,44.07-12.14,16.16-2.41,30.79-2.08,43.17-1.8,12.73.29,17.38,1.11,32.83,1.35,13.39.21,21.37-.25,29.23-.45,29.02-.74,37.24,2.14,57.56,2.25,9.46.05,12.02-.55,78.69-12.14,35.33-6.14,53.09-9.21,58.01-8.99,30.34,1.31,53.38,12.22,61.16,1.8.5-.67,1.69-2.44,2.25-11.24,1.28-20.03-3.27-35.72-3.6-36.87-3.54-12.27-7.4-32.32-8.9-66.81"/>
  <path class="cls-2" d="M727.14,750.72c-1.4,2.98-8.72,3.73-11.96.68-2.05-1.94-.81-3.85-3.06-7.38-1.25-1.96-2.45-2.65-7.09-5.86-8.68-6.01-7.69-5.82-9.96-7.02-2.56-1.36-4.66-2.04-12.87-3.92-9.85-2.24-14.78-3.36-18.89-3.92-2.22-.3-9.98-1.28-20.34-1.15-6.57.08-12.77.16-20.73,1.75-3.92.78-10.48,3.25-23.46,8.16,0,0-19.71,7.46-20.78,12.42-.09.43-.37,1.7.31,2.44.73.79,2.17.54,2.6.47,4.03-.64,7.85-.63,11.88-1.24.68-.1,6.27-.7,17.2-.64,3.39.02,9.22-.26,16.63-.16,13.07.17,11.96.06,15.77.01,5.15-.07,4.37-.33,19.7-1.09,15.18-.75,14.71-.95,16.14-.95,5.09-.01,10.32-1.5,13.6.61.69.44,2,1.53,3.2,2.92.87,1,1.35,1.85,2.31,3.57.44.79.55,1.05.44,1.28-.42.93-3.92.4-5.3.31-3.42-.21-3.31-.35-14.13.22-2.06.11-6.2.2-14.47.4-4.4.1-8.88.47-13.16,0-.49-.06-2.35-.35-3.06.45-.4.44-.25,1.09-.17,2.13.03.42-.02,1.67-.14,4.17-.12,2.68-.46,3.08-.58,6-.02.53.11,1.46.38,3.31.06.43.11.74.36.98.72.71,2.37.24,2.91.3.72.07.67-.1,8.55-.51,5.62-.29,11.26-.03,16.89-.03,10.26,0,8.55-.21,22.81-.32,19.86-.16,19.02-.96,20.89-.96,1.56,0,7.27-1.72,8.92.28.21.26.66.96.72,1.87.08,1.38-.81,2.45-1.16,2.87-2.08,2.54-3.46,5.65-5.79,7.96-10.94,10.87-11.39,13.06-17.96,18.04-11.08,8.42-21.71,11.24-39.83,16.06-6.47,1.72-12.28,3.24-20.42,4.18-7.98.92-17.58,2.03-29.2-.37-8.62-1.78-15.34-5.45-28.79-12.78-5.25-2.86-17.78-9.98-22.52-17.62-2.29-3.7-2.25-6.71-4.69-10.92-.33-.58-1.26-2.12-.67-3.22.35-.67,1.09-1.13,1.69-1.11,1.36.04,2.12-.18,3.98-.06,3.23.2,5.63,0,5.63,0,1.12-.1,1.89-.23,2.42.27.61.59.33,1.62.41,2.25.24,1.72.81,3.19,2.61,6.1,2.95,4.76,9.8,9.53,11.3,10.56,4.88,3.36,7.97,5.97,14.51,9.36,5.51,2.86,9,3.68,11.44,4.4,1.84.55,3.95,1.01,15.67,1.48,7.7.31,11.56.46,16.39.34,6.57-.17,10.22.07,15.08-1.06,10.37-2.41,18.25-5.2,20-6.14,5.33-2.86,4.09-2.26,14.74-8.74,2.94-1.79,5.87-3.52,8.72-5.54,1.15-.82,3.59-2.6,6.2-5.62,1.49-1.72,1.02-2.55.87-2.79-.63-1-3.25-.34-5.14.03-4.01.77-8.16.18-12.24.38-8.45.41-18.67.22-30,.38-22.02.31-33.04.47-38,1.67,0,0-18.18,4.4-29.92,1.06-1.14-.32-2.1-.94-2.1-.94-1.39-.89-2.12-1.99-2.26-2.21-.8-1.25-.44-1.59-1.25-3.24-.9-1.84-1.78-2.31-1.56-2.77.33-.67,2.45-.07,4.94.16,2.92.27,4.42-.13,7.39-.44,1.74-.18,7.39-.05,18.62.22,3.28.08,6.57-1.08,9.82-.65.41.05,1.64.24,2.15-.41.42-.53.09-1.29-.11-2.43-.09-.53-.01-1.84.15-4.46.1-1.61.06-3.24.26-4.84.14-1.13.23-1.8.17-2.62s.17-1.68-.24-1.7c-6.39-.42-11.89,0-13.16.28-2.42.52-9.92.06-25.71-.14-18.89-.25-21.28,1.37-26.16,1.6-.96.05-4.52.99-6.4-.43-.61-.46-1.15-1.31-1.09-2.17.08-1.1,1.1-1.6,2.52-3.02,1.01-1,1.12-1.37,2.53-3.22,0,0,2.69-3.52,6.96-8.21,5.84-6.43,19.33-12.1,23.35-13.79,5.81-2.44,14.7-6.12,27.15-8.43,9.35-1.73,16-1.81,28.69-1.97,10.78-.13,18.43-.2,28.78,1.33,9.37,1.38,16.6,2.52,24.9,7.12,3.43,1.9,6.65,4.52,13.07,9.74,2.78,2.26,6.95,5.78,10,11.58,1.57,2.98,1.6,4.2,1.19,5.08Z"/>
  <path class="cls-2" d="M75.83,596.55c.12,8.94.86,21.33,3.65,35.8,4.82,25.04,13.1,42.55,21.26,59.51,16.69,34.68,35.1,58.29,41.44,66.17,19,23.6,36.31,38.45,50.55,50.67,24.39,20.93,44.71,33.96,50.58,37.66,18.34,11.58,35.08,20.1,48.62,26.27"/>
  <path class="cls-1" d="M59.61,597.42c-.52,7.95-.66,19.26,1.24,32.61,2.19,15.34,6.45,28.99,14.66,47.73,6.45,14.72,17.8,40.21,39.88,71.26,7.53,10.59,29.84,40.86,66.52,72.58,7.72,6.68,33.3,28.31,71.21,50.02,13.76,7.88,25.81,13.86,34.91,18.11"/>
  <path class="cls-1" d="M832.97,858.34c23.43-12.91,52.64-31.32,83.45-57.02,15.52-12.95,43.02-36.16,71.72-72.81,36.98-47.22,56.4-91.8,65.74-116.41,21.35-56.28,27.26-106.49,28.53-141.25"/>
  <path class="cls-1" d="M1072.86,395.97c-7.54-48.3-27.1-93.26-55.87-132.65-23.93-32.75-50.02-63.57-83.01-87.56-22.35-16.25-46.63-29.92-72.1-40.63"/>
  <path class="cls-3" d="M862.87,136.34c1.93,0,1.93-3,0-3s-1.93,3,0,3h0Z"/>
  <path class="cls-3" d="M861.32,135.51c1.93,0,1.93-3,0-3s-1.93,3,0,3h0Z"/>
  <path class="cls-2" d="M871.75,154.32c11.91,6.05,28.07,15.16,45.87,28.16,39.88,29.12,62.79,59.42,82.05,85.3,23.6,31.71,43.58,59.15,53.62,101.11,2.29,9.59,3.53,17.68,4.22,23.2"/>
  <path class="cls-2" d="M1066.54,460.56c.87,12.28,1.31,29.16-.56,49.06-3.48,36.91-12.99,63.6-20.82,85.1-19.97,54.85-45.7,92.54-53.53,103.66-28.31,40.21-56.37,65.34-73.6,80.58-32.99,29.17-64.46,49.52-88.8,63.26"/>
</svg>